<?xml version="1.0" encoding="UTF-8" standalone="no"?><!DOCTYPE svg PUBLIC "-//W3C//DTD SVG 1.1//EN" "http://www.w3.org/Graphics/SVG/1.1/DTD/svg11.dtd"><svg width="100%" height="100%" viewBox="0 0 1760 314" version="1.1" xmlns="http://www.w3.org/2000/svg" xmlns:xlink="http://www.w3.org/1999/xlink" xml:space="preserve" xmlns:serif="http://www.serif.com/" style="fill-rule:evenodd;clip-rule:evenodd;stroke-linejoin:round;stroke-miterlimit:2;"><g id="Layer-1" serif:id="Layer 1"><g transform="matrix(3.125,0,0,3.125,-18.7115,-190.402)"><g transform="matrix(29.9014,0,0,29.9014,355.24,91.9331)"><path d="M0.073,-0.27l0,-0.428l0.091,0l0,0.428c0,0.135 0.066,0.202 0.2,0.202c0.133,0 0.2,-0.067 0.2,-0.202l0,-0.428l0.09,0l0,0.428c0,0.183 -0.097,0.275 -0.29,0.275c-0.194,0 -0.291,-0.092 -0.291,-0.275Z" style="fill:#a7a9ac;fill-rule:nonzero;"/></g><g transform="matrix(29.9014,0,0,29.9014,376.43,91.9331)"><path d="M0.073,0l0,-0.513l0.061,0l0.016,0.066c0.063,-0.044 0.125,-0.066 0.188,-0.066c0.118,0 0.177,0.064 0.177,0.191l0,0.322l-0.09,0l0,-0.323c0,-0.076 -0.038,-0.114 -0.114,-0.114c-0.052,-0.001 -0.101,0.021 -0.147,0.064l0,0.373l-0.091,0Z" style="fill:#a7a9ac;fill-rule:nonzero;"/></g><g transform="matrix(29.9014,0,0,29.9014,393.458,91.9331)"><path d="M0.164,-0.698l0,0.073l-0.091,0l0,-0.073l0.091,0Zm0,0.185l0,0.513l-0.091,0l0,-0.513l0.091,0Z" style="fill:#a7a9ac;fill-rule:nonzero;"/></g><g transform="matrix(29.9014,0,0,29.9014,399.975,91.9331)"><path d="M0,-0.513l0.098,0l0.147,0.402l0.146,-0.402l0.097,0l-0.208,0.513l-0.084,0l-0.196,-0.513Z" style="fill:#a7a9ac;fill-rule:nonzero;"/></g><g transform="matrix(29.9014,0,0,29.9014,414.011,91.9331)"><path d="M0.294,-0.513c0.157,0 0.221,0.094 0.19,0.283l-0.345,0c0,0.104 0.066,0.157 0.198,0.157c0.046,0 0.091,-0.005 0.136,-0.015l0,0.073c-0.045,0.01 -0.1,0.015 -0.165,0.015c-0.173,0 -0.259,-0.087 -0.259,-0.262c0,-0.167 0.082,-0.251 0.245,-0.251Zm-0.155,0.207l0.263,0c0.004,-0.09 -0.036,-0.134 -0.122,-0.134c-0.088,0 -0.135,0.044 -0.141,0.134Z" style="fill:#a7a9ac;fill-rule:nonzero;"/></g><g transform="matrix(29.9014,0,0,29.9014,429.974,91.9331)"><path d="M0.073,0l0,-0.513l0.061,0l0.016,0.066c0.045,-0.044 0.099,-0.066 0.162,-0.066l0,0.076c-0.061,-0.001 -0.11,0.021 -0.148,0.064l0,0.373l-0.091,0Z" style="fill:#a7a9ac;fill-rule:nonzero;"/></g><g transform="matrix(29.9014,0,0,29.9014,439.265,91.9331)"><path d="M0.073,-0.024l0,-0.079c0.057,0.02 0.116,0.03 0.178,0.03c0.082,0 0.123,-0.025 0.123,-0.073c0,-0.046 -0.027,-0.069 -0.081,-0.069l-0.083,0c-0.107,0 -0.161,-0.05 -0.161,-0.151c0,-0.098 0.071,-0.147 0.213,-0.147c0.061,0 0.12,0.008 0.177,0.025l0,0.078c-0.057,-0.02 -0.116,-0.029 -0.177,-0.029c-0.085,0 -0.128,0.024 -0.128,0.073c0,0.045 0.026,0.068 0.076,0.068l0.083,0c0.114,0 0.171,0.051 0.171,0.152c0,0.097 -0.071,0.146 -0.213,0.146c-0.062,0 -0.121,-0.008 -0.178,-0.024Z" style="fill:#a7a9ac;fill-rule:nonzero;"/></g><g transform="matrix(29.9014,0,0,29.9014,454.03,91.9331)"><path d="M0.049,-0.16c0,-0.105 0.069,-0.157 0.208,-0.157c0.051,0 0.096,0.003 0.134,0.009l0,-0.048c0,-0.056 -0.046,-0.083 -0.139,-0.083c-0.052,0 -0.106,0.008 -0.162,0.024l0,-0.073c0.056,-0.017 0.11,-0.025 0.162,-0.025c0.153,0 0.229,0.055 0.229,0.164l0,0.349l-0.046,0l-0.036,-0.036c-0.045,0.024 -0.097,0.036 -0.157,0.036c-0.129,0 -0.193,-0.053 -0.193,-0.16Zm0.342,-0.074c-0.036,-0.007 -0.081,-0.01 -0.134,-0.01c-0.079,0 -0.118,0.028 -0.118,0.083c0,0.058 0.034,0.088 0.103,0.088c0.062,0 0.112,-0.014 0.149,-0.04l0,-0.121Z" style="fill:#a7a9ac;fill-rule:nonzero;"/></g><g transform="matrix(29.9014,0,0,29.9014,470.037,91.9331)"><rect x="0.073" y="-0.698" width="0.09" height="0.698" style="fill:#a7a9ac;fill-rule:nonzero;"/></g><g transform="matrix(29.9014,0,0,29.9014,483.071,91.9331)"><path d="M0.012,0l0.297,-0.698l0.1,0l0.298,0.698l-0.096,0l-0.092,-0.22l-0.234,0l0.025,-0.073l0.174,0l-0.129,-0.311l-0.249,0.604l-0.094,0Z" style="fill:#a7a9ac;fill-rule:nonzero;"/></g><g transform="matrix(29.9014,0,0,29.9014,503.998,91.9331)"><path d="M0.073,-0.024l0,-0.079c0.057,0.02 0.116,0.03 0.178,0.03c0.082,0 0.123,-0.025 0.123,-0.073c0,-0.046 -0.027,-0.069 -0.081,-0.069l-0.083,0c-0.107,0 -0.161,-0.05 -0.161,-0.151c0,-0.098 0.071,-0.147 0.213,-0.147c0.061,0 0.12,0.008 0.177,0.025l0,0.078c-0.057,-0.02 -0.116,-0.029 -0.177,-0.029c-0.085,0 -0.128,0.024 -0.128,0.073c0,0.045 0.026,0.068 0.076,0.068l0.083,0c0.114,0 0.171,0.051 0.171,0.152c0,0.097 -0.071,0.146 -0.213,0.146c-0.062,0 -0.121,-0.008 -0.178,-0.024Z" style="fill:#a7a9ac;fill-rule:nonzero;"/></g><g transform="matrix(29.9014,0,0,29.9014,518.763,91.9331)"><path d="M0.073,-0.024l0,-0.079c0.057,0.02 0.116,0.03 0.178,0.03c0.082,0 0.123,-0.025 0.123,-0.073c0,-0.046 -0.027,-0.069 -0.081,-0.069l-0.083,0c-0.107,0 -0.161,-0.05 -0.161,-0.151c0,-0.098 0.071,-0.147 0.213,-0.147c0.061,0 0.12,0.008 0.177,0.025l0,0.078c-0.057,-0.02 -0.116,-0.029 -0.177,-0.029c-0.085,0 -0.128,0.024 -0.128,0.073c0,0.045 0.026,0.068 0.076,0.068l0.083,0c0.114,0 0.171,0.051 0.171,0.152c0,0.097 -0.071,0.146 -0.213,0.146c-0.062,0 -0.121,-0.008 -0.178,-0.024Z" style="fill:#a7a9ac;fill-rule:nonzero;"/></g><g transform="matrix(29.9014,0,0,29.9014,533.529,91.9331)"><path d="M0.294,-0.513c0.157,0 0.221,0.094 0.19,0.283l-0.345,0c0,0.104 0.066,0.157 0.198,0.157c0.046,0 0.091,-0.005 0.136,-0.015l0,0.073c-0.045,0.01 -0.1,0.015 -0.165,0.015c-0.173,0 -0.259,-0.087 -0.259,-0.262c0,-0.167 0.082,-0.251 0.245,-0.251Zm-0.155,0.207l0.263,0c0.004,-0.09 -0.036,-0.134 -0.122,-0.134c-0.088,0 -0.135,0.044 -0.141,0.134Z" style="fill:#a7a9ac;fill-rule:nonzero;"/></g><g transform="matrix(29.9014,0,0,29.9014,549.492,91.9331)"><path d="M0.073,-0.596l0.057,0l0.019,0.083l0.12,0l0,0.074l-0.105,0l0,0.294c0,0.048 0.02,0.072 0.062,0.072l0.043,0l0,0.073l-0.067,0c-0.086,0 -0.129,-0.046 -0.129,-0.138l0,-0.458Z" style="fill:#a7a9ac;fill-rule:nonzero;"/></g><g transform="matrix(29.9014,0,0,29.9014,355.24,120.339)"><path d="M0.073,0l0,-0.698l0.115,0l0.256,0.582l0.252,-0.582l0.11,0l0,0.698l-0.081,0l0,-0.563l-0.248,0.563l-0.071,0l-0.252,-0.563l0,0.563l-0.081,0Z" style="fill:#a7a9ac;fill-rule:nonzero;"/></g><g transform="matrix(29.9014,0,0,29.9014,380.949,120.339)"><path d="M0.049,-0.16c0,-0.105 0.069,-0.157 0.208,-0.157c0.051,0 0.096,0.003 0.134,0.009l0,-0.048c0,-0.056 -0.046,-0.083 -0.139,-0.083c-0.052,0 -0.106,0.008 -0.162,0.024l0,-0.073c0.056,-0.017 0.11,-0.025 0.162,-0.025c0.153,0 0.229,0.055 0.229,0.164l0,0.349l-0.046,0l-0.036,-0.036c-0.045,0.024 -0.097,0.036 -0.157,0.036c-0.129,0 -0.193,-0.053 -0.193,-0.16Zm0.342,-0.074c-0.036,-0.007 -0.081,-0.01 -0.134,-0.01c-0.079,0 -0.118,0.028 -0.118,0.083c0,0.058 0.034,0.088 0.103,0.088c0.062,0 0.112,-0.014 0.149,-0.04l0,-0.121Z" style="fill:#a7a9ac;fill-rule:nonzero;"/></g><g transform="matrix(29.9014,0,0,29.9014,396.949,120.339)"><path d="M0.073,0l0,-0.513l0.061,0l0.016,0.066c0.063,-0.044 0.125,-0.066 0.188,-0.066c0.118,0 0.177,0.064 0.177,0.191l0,0.322l-0.09,0l0,-0.323c0,-0.076 -0.038,-0.114 -0.114,-0.114c-0.052,-0.001 -0.101,0.021 -0.147,0.064l0,0.373l-0.091,0Z" style="fill:#a7a9ac;fill-rule:nonzero;"/></g><g transform="matrix(29.9014,0,0,29.9014,413.971,120.339)"><path d="M0.049,-0.16c0,-0.105 0.069,-0.157 0.208,-0.157c0.051,0 0.096,0.003 0.134,0.009l0,-0.048c0,-0.056 -0.046,-0.083 -0.139,-0.083c-0.052,0 -0.106,0.008 -0.162,0.024l0,-0.073c0.056,-0.017 0.11,-0.025 0.162,-0.025c0.153,0 0.229,0.055 0.229,0.164l0,0.349l-0.046,0l-0.036,-0.036c-0.045,0.024 -0.097,0.036 -0.157,0.036c-0.129,0 -0.193,-0.053 -0.193,-0.16Zm0.342,-0.074c-0.036,-0.007 -0.081,-0.01 -0.134,-0.01c-0.079,0 -0.118,0.028 -0.118,0.083c0,0.058 0.034,0.088 0.103,0.088c0.062,0 0.112,-0.014 0.149,-0.04l0,-0.121Z" style="fill:#a7a9ac;fill-rule:nonzero;"/></g><g transform="matrix(29.9014,0,0,29.9014,429.971,120.339)"><path d="M0.416,-0.104c-0.035,0.017 -0.077,0.026 -0.124,0.026c-0.103,0 -0.154,-0.061 -0.154,-0.182c0,-0.118 0.054,-0.178 0.163,-0.178c0.046,0.001 0.084,0.004 0.115,0.012l0,0.322Zm0.09,-0.388c-0.064,-0.014 -0.131,-0.021 -0.201,-0.021c-0.171,0 -0.256,0.085 -0.256,0.254c0,0.173 0.081,0.259 0.243,0.259c0.044,0 0.086,-0.008 0.124,-0.024l0,0.024c0,0.075 -0.048,0.112 -0.145,0.112c-0.062,0 -0.119,-0.008 -0.168,-0.024l0,0.073c0.048,0.016 0.104,0.025 0.168,0.025c0.157,0 0.235,-0.062 0.235,-0.186l0,-0.492Z" style="fill:#a7a9ac;fill-rule:nonzero;"/></g><g transform="matrix(29.9014,0,0,29.9014,446.73,120.339)"><path d="M0.294,-0.513c0.157,0 0.221,0.094 0.19,0.283l-0.345,0c0,0.104 0.066,0.157 0.198,0.157c0.046,0 0.091,-0.005 0.136,-0.015l0,0.073c-0.045,0.01 -0.1,0.015 -0.165,0.015c-0.173,0 -0.259,-0.087 -0.259,-0.262c0,-0.167 0.082,-0.251 0.245,-0.251Zm-0.155,0.207l0.263,0c0.004,-0.09 -0.036,-0.134 -0.122,-0.134c-0.088,0 -0.135,0.044 -0.141,0.134Z" style="fill:#a7a9ac;fill-rule:nonzero;"/></g><g transform="matrix(29.9014,0,0,29.9014,462.686,120.339)"><path d="M0.073,0l0,-0.513l0.061,0l0.015,0.065c0.059,-0.043 0.118,-0.065 0.176,-0.065c0.064,0 0.11,0.024 0.137,0.071c0.065,-0.047 0.127,-0.071 0.184,-0.071c0.108,0 0.162,0.065 0.162,0.195l0,0.318l-0.09,0l0,-0.323c0,-0.076 -0.032,-0.114 -0.097,-0.114c-0.048,-0.001 -0.093,0.022 -0.135,0.066l0,0.371l-0.09,0l0,-0.321c0,-0.078 -0.032,-0.116 -0.096,-0.116c-0.051,-0.001 -0.096,0.022 -0.136,0.066l0,0.371l-0.091,0Z" style="fill:#a7a9ac;fill-rule:nonzero;"/></g><g transform="matrix(29.9014,0,0,29.9014,488.468,120.339)"><path d="M0.294,-0.513c0.157,0 0.221,0.094 0.19,0.283l-0.345,0c0,0.104 0.066,0.157 0.198,0.157c0.046,0 0.091,-0.005 0.136,-0.015l0,0.073c-0.045,0.01 -0.1,0.015 -0.165,0.015c-0.173,0 -0.259,-0.087 -0.259,-0.262c0,-0.167 0.082,-0.251 0.245,-0.251Zm-0.155,0.207l0.263,0c0.004,-0.09 -0.036,-0.134 -0.122,-0.134c-0.088,0 -0.135,0.044 -0.141,0.134Z" style="fill:#a7a9ac;fill-rule:nonzero;"/></g><g transform="matrix(29.9014,0,0,29.9014,504.425,120.339)"><path d="M0.073,0l0,-0.513l0.061,0l0.016,0.066c0.063,-0.044 0.125,-0.066 0.188,-0.066c0.118,0 0.177,0.064 0.177,0.191l0,0.322l-0.09,0l0,-0.323c0,-0.076 -0.038,-0.114 -0.114,-0.114c-0.052,-0.001 -0.101,0.021 -0.147,0.064l0,0.373l-0.091,0Z" style="fill:#a7a9ac;fill-rule:nonzero;"/></g><g transform="matrix(29.9014,0,0,29.9014,521.447,120.339)"><path d="M0.073,-0.596l0.057,0l0.019,0.083l0.12,0l0,0.074l-0.105,0l0,0.294c0,0.048 0.02,0.072 0.062,0.072l0.043,0l0,0.073l-0.067,0c-0.086,0 -0.129,-0.046 -0.129,-0.138l0,-0.458Z" style="fill:#a7a9ac;fill-rule:nonzero;"/></g><g transform="matrix(15.36,0,0,15.36,355.24,148.746)"><path d="M0.557,0l0.092,0l-0.269,-0.667l-0.103,0l-0.268,0.667l0.092,0l0.059,-0.148l0.338,0l0.059,0.148Zm-0.228,-0.593l0.144,0.371l-0.289,0l0.145,-0.371Z" style="fill:#a7a9ac;fill-rule:nonzero;"/></g><g transform="matrix(15.36,0,0,15.36,369.309,148.746)"><path d="M0.648,0l0.083,0l0,-0.667l-0.119,0l-0.208,0.508l-0.207,-0.508l-0.119,0l0,0.667l0.083,0l0,-0.555l0.226,0.555l0.034,0l0.227,-0.555l0,0.555Z" style="fill:#a7a9ac;fill-rule:nonzero;"/></g><g transform="matrix(15.36,0,0,15.36,381.736,148.746)"><path d="M0.047,-0.242c0,0.151 0.103,0.254 0.246,0.254c0.079,0 0.144,-0.026 0.192,-0.074l-0.036,-0.049c-0.038,0.039 -0.094,0.061 -0.149,0.061c-0.104,0 -0.168,-0.076 -0.174,-0.167l0.391,0l0,-0.019c0,-0.145 -0.086,-0.259 -0.232,-0.259c-0.138,0 -0.238,0.113 -0.238,0.253Zm0.237,-0.191c0.11,0 0.158,0.089 0.159,0.161l-0.317,0c0.004,-0.074 0.055,-0.161 0.158,-0.161Z" style="fill:#a7a9ac;fill-rule:nonzero;"/></g><g transform="matrix(15.36,0,0,15.36,390.383,148.746)"><path d="M0.658,0l0.075,0l0,-0.349c0,-0.097 -0.047,-0.146 -0.135,-0.146c-0.07,0 -0.135,0.046 -0.162,0.09c-0.014,-0.05 -0.056,-0.09 -0.13,-0.09c-0.071,0 -0.136,0.051 -0.156,0.082l0,-0.07l-0.075,0l0,0.483l0.075,0l0,-0.353c0.026,-0.039 0.078,-0.075 0.127,-0.075c0.063,0 0.089,0.039 0.089,0.1l0,0.328l0.075,0l0,-0.354c0.025,-0.038 0.078,-0.074 0.128,-0.074c0.062,0 0.089,0.039 0.089,0.1l0,0.328Z" style="fill:#a7a9ac;fill-rule:nonzero;"/></g><g transform="matrix(15.36,0,0,15.36,402.794,148.746)"><path d="M0.075,0l0.075,0l0,-0.072c0.036,0.049 0.095,0.084 0.163,0.084c0.126,0 0.215,-0.096 0.215,-0.253c0,-0.154 -0.089,-0.254 -0.215,-0.254c-0.066,0 -0.124,0.032 -0.163,0.085l0,-0.257l-0.075,0l0,0.667Zm0.075,-0.131l0,-0.219c0.026,-0.042 0.085,-0.078 0.144,-0.078c0.098,0 0.156,0.08 0.156,0.187c0,0.107 -0.058,0.186 -0.156,0.186c-0.059,0 -0.118,-0.034 -0.144,-0.076Z" style="fill:#a7a9ac;fill-rule:nonzero;"/></g><g transform="matrix(15.36,0,0,15.36,411.626,148.746)"><path d="M0.047,-0.242c0,0.151 0.103,0.254 0.246,0.254c0.079,0 0.144,-0.026 0.192,-0.074l-0.036,-0.049c-0.038,0.039 -0.094,0.061 -0.149,0.061c-0.104,0 -0.168,-0.076 -0.174,-0.167l0.391,0l0,-0.019c0,-0.145 -0.086,-0.259 -0.232,-0.259c-0.138,0 -0.238,0.113 -0.238,0.253Zm0.237,-0.191c0.11,0 0.158,0.089 0.159,0.161l-0.317,0c0.004,-0.074 0.055,-0.161 0.158,-0.161Z" style="fill:#a7a9ac;fill-rule:nonzero;"/></g><g transform="matrix(15.36,0,0,15.36,420.274,148.746)"><path d="M0.075,0l0.075,0l0,-0.342c0.022,-0.039 0.085,-0.077 0.131,-0.077c0.012,0 0.021,0.001 0.03,0.003l0,-0.077c-0.066,0 -0.122,0.037 -0.161,0.088l0,-0.078l-0.075,0l0,0.483Z" style="fill:#a7a9ac;fill-rule:nonzero;"/></g><g transform="matrix(15.36,0,0,15.36,429.306,148.746)"><path d="M0.286,0.012c0.147,0 0.239,-0.114 0.239,-0.254c0,-0.14 -0.092,-0.253 -0.239,-0.253c-0.147,0 -0.239,0.113 -0.239,0.253c0,0.14 0.092,0.254 0.239,0.254Zm0,-0.067c-0.103,0 -0.161,-0.088 -0.161,-0.187c0,-0.098 0.058,-0.186 0.161,-0.186c0.103,0 0.16,0.088 0.16,0.186c0,0.099 -0.057,0.187 -0.16,0.187Z" style="fill:#a7a9ac;fill-rule:nonzero;"/></g><g transform="matrix(15.36,0,0,15.36,438.092,148.746)"><path d="M0.096,0l0.075,0l0,-0.417l0.098,0l0,-0.066l-0.098,0l0,-0.037c0,-0.061 0.027,-0.095 0.076,-0.095c0.017,0 0.031,0.004 0.043,0.011l0.019,-0.056c-0.019,-0.012 -0.045,-0.017 -0.073,-0.017c-0.084,0 -0.14,0.057 -0.14,0.157l0,0.037l-0.08,0l0,0.066l0.08,0l0,0.417Z" style="fill:#a7a9ac;fill-rule:nonzero;"/></g><g transform="matrix(15.36,0,0,15.36,446.401,148.746)"><path d="M0.197,0.012c0.044,0 0.071,-0.013 0.09,-0.031l-0.022,-0.056c-0.01,0.011 -0.03,0.02 -0.051,0.02c-0.033,0 -0.049,-0.026 -0.049,-0.062l0,-0.3l0.098,0l0,-0.066l-0.098,0l0,-0.132l-0.075,0l0,0.132l-0.08,0l0,0.066l0.08,0l0,0.316c0,0.072 0.036,0.113 0.107,0.113Z" style="fill:#a7a9ac;fill-rule:nonzero;"/></g><g transform="matrix(15.36,0,0,15.36,450.917,148.746)"><path d="M0.402,0l0.075,0l0,-0.341c0,-0.105 -0.053,-0.154 -0.154,-0.154c-0.073,0 -0.139,0.042 -0.173,0.082l0,-0.254l-0.075,0l0,0.667l0.075,0l0,-0.353c0.029,-0.039 0.085,-0.075 0.143,-0.075c0.065,0 0.109,0.025 0.109,0.11l0,0.318Z" style="fill:#a7a9ac;fill-rule:nonzero;"/></g><g transform="matrix(15.36,0,0,15.36,459.396,148.746)"><path d="M0.047,-0.242c0,0.151 0.103,0.254 0.246,0.254c0.079,0 0.144,-0.026 0.192,-0.074l-0.036,-0.049c-0.038,0.039 -0.094,0.061 -0.149,0.061c-0.104,0 -0.168,-0.076 -0.174,-0.167l0.391,0l0,-0.019c0,-0.145 -0.086,-0.259 -0.232,-0.259c-0.138,0 -0.238,0.113 -0.238,0.253Zm0.237,-0.191c0.11,0 0.158,0.089 0.159,0.161l-0.317,0c0.004,-0.074 0.055,-0.161 0.158,-0.161Z" style="fill:#a7a9ac;fill-rule:nonzero;"/></g><g transform="matrix(15.36,0,0,15.36,472.006,148.746)"><path d="M0.391,0.012c0.121,0 0.201,-0.056 0.257,-0.132l-0.071,-0.039c-0.038,0.057 -0.107,0.097 -0.186,0.097c-0.143,0 -0.254,-0.113 -0.254,-0.271c0,-0.159 0.111,-0.271 0.254,-0.271c0.079,0 0.148,0.041 0.186,0.097l0.07,-0.039c-0.053,-0.075 -0.135,-0.132 -0.256,-0.132c-0.189,0 -0.34,0.14 -0.34,0.345c0,0.205 0.151,0.345 0.34,0.345Z" style="fill:#a7a9ac;fill-rule:nonzero;"/></g><g transform="matrix(15.36,0,0,15.36,482.344,148.746)"><path d="M0.557,0l0.092,0l-0.269,-0.667l-0.103,0l-0.268,0.667l0.092,0l0.059,-0.148l0.338,0l0.059,0.148Zm-0.228,-0.593l0.144,0.371l-0.289,0l0.145,-0.371Z" style="fill:#a7a9ac;fill-rule:nonzero;"/></g><g transform="matrix(15.36,0,0,15.36,492.451,148.746)"><path d="M0.078,0l0.393,0l0,-0.074l-0.31,0l0,-0.593l-0.083,0l0,0.667Z" style="fill:#a7a9ac;fill-rule:nonzero;"/></g><g transform="matrix(15.36,0,0,15.36,499.762,148.746)"><path d="M0.391,0.012c0.121,0 0.201,-0.056 0.257,-0.132l-0.071,-0.039c-0.038,0.057 -0.107,0.097 -0.186,0.097c-0.143,0 -0.254,-0.113 -0.254,-0.271c0,-0.159 0.111,-0.271 0.254,-0.271c0.079,0 0.148,0.041 0.186,0.097l0.07,-0.039c-0.053,-0.075 -0.135,-0.132 -0.256,-0.132c-0.189,0 -0.34,0.14 -0.34,0.345c0,0.205 0.151,0.345 0.34,0.345Z" style="fill:#a7a9ac;fill-rule:nonzero;"/></g><g transform="matrix(15.36,0,0,15.36,514.108,148.746)"><path d="M0.051,-0.333c0,0.207 0.153,0.346 0.343,0.346c0.109,0 0.2,-0.046 0.262,-0.115l0,-0.241l-0.312,0l0,0.074l0.229,0l0,0.136c-0.033,0.033 -0.099,0.072 -0.179,0.072c-0.146,0 -0.257,-0.114 -0.257,-0.272c0,-0.159 0.111,-0.271 0.257,-0.271c0.08,0 0.151,0.038 0.193,0.092l0.066,-0.041c-0.059,-0.073 -0.141,-0.125 -0.259,-0.125c-0.19,0 -0.343,0.138 -0.343,0.345Z" style="fill:#a7a9ac;fill-rule:nonzero;"/></g><g transform="matrix(15.36,0,0,15.36,525.06,148.746)"><path d="M0.075,0l0.075,0l0,-0.342c0.022,-0.039 0.085,-0.077 0.131,-0.077c0.012,0 0.021,0.001 0.03,0.003l0,-0.077c-0.066,0 -0.122,0.037 -0.161,0.088l0,-0.078l-0.075,0l0,0.483Z" style="fill:#a7a9ac;fill-rule:nonzero;"/></g><g transform="matrix(15.36,0,0,15.36,530.129,148.746)"><path d="M0.286,0.012c0.147,0 0.239,-0.114 0.239,-0.254c0,-0.14 -0.092,-0.253 -0.239,-0.253c-0.147,0 -0.239,0.113 -0.239,0.253c0,0.14 0.092,0.254 0.239,0.254Zm0,-0.067c-0.103,0 -0.161,-0.088 -0.161,-0.187c0,-0.098 0.058,-0.186 0.161,-0.186c0.103,0 0.16,0.088 0.16,0.186c0,0.099 -0.057,0.187 -0.16,0.187Z" style="fill:#a7a9ac;fill-rule:nonzero;"/></g><g transform="matrix(15.36,0,0,15.36,538.915,148.746)"><path d="M0.401,0l0.075,0l0,-0.483l-0.075,0l0,0.355c-0.028,0.039 -0.084,0.073 -0.143,0.073c-0.065,0 -0.108,-0.025 -0.108,-0.11l0,-0.318l-0.075,0l0,0.341c0,0.105 0.053,0.154 0.154,0.154c0.072,0 0.135,-0.038 0.172,-0.08l0,0.068Z" style="fill:#a7a9ac;fill-rule:nonzero;"/></g><g transform="matrix(15.36,0,0,15.36,547.378,148.746)"><path d="M0.15,0.184l0,-0.257c0.039,0.054 0.097,0.085 0.163,0.085c0.127,0 0.215,-0.098 0.215,-0.254c0,-0.157 -0.088,-0.253 -0.215,-0.253c-0.068,0 -0.128,0.035 -0.163,0.084l0,-0.072l-0.075,0l0,0.667l0.075,0Zm0.299,-0.426c0,0.107 -0.058,0.187 -0.155,0.187c-0.059,0 -0.118,-0.036 -0.144,-0.078l0,-0.218c0.026,-0.042 0.085,-0.077 0.144,-0.077c0.097,0 0.155,0.079 0.155,0.186Z" style="fill:#a7a9ac;fill-rule:nonzero;"/></g></g><path d="M1057.74,8.861c0,0 0.346,4.753 0.759,13.078c0.328,8.316 1.028,20.207 1.478,34.469c0.5,14.263 0.913,30.906 1.197,48.738c0.1,8.915 0.216,18.122 0.325,27.484c0.047,9.363 0.091,18.872 0.137,28.381c-0.046,9.507 -0.09,19.016 -0.128,28.378c0,9.363 -0.234,18.569 -0.325,27.485c-0.275,17.831 -0.697,34.475 -1.206,48.737c-0.431,14.266 -1.141,26.153 -1.478,34.469c-0.413,8.325 -0.759,13.078 -0.759,13.078c0,0 -0.344,-4.753 -0.757,-13.078c-0.331,-8.316 -1.05,-20.203 -1.487,-34.469c-0.503,-14.262 -0.922,-30.906 -1.188,-48.737c-0.109,-8.916 -0.337,-18.122 -0.337,-27.485c-0.047,-9.362 -0.088,-18.871 -0.125,-28.378c0.044,-9.509 0.087,-19.018 0.125,-28.381c0.119,-9.362 0.228,-18.569 0.347,-27.484c0.275,-17.832 0.693,-34.475 1.197,-48.738c0.437,-14.262 1.137,-26.153 1.468,-34.469c0.413,-8.325 0.757,-13.078 0.757,-13.078" style="fill:#d1d3d4;fill-rule:nonzero;"/><path d="M203.679,169.725c-5.981,17.582 2.935,34.41 19.816,37.397c16.881,2.988 31.14,-9.756 31.69,-28.318l4.219,-142.069c0.55,-18.563 -3.894,-19.366 -9.875,-1.785l-45.85,134.775Zm106.944,61.954c-16.763,-7.991 -42.406,-5.179 -56.988,6.253c-14.581,11.428 -11.55,23.428 6.735,26.665l156.528,27.716c18.287,3.237 19.531,-0.653 2.769,-8.644l-109.044,-51.99Zm-176.388,-31.229c18.488,-1.753 41.607,9.697 51.375,25.441c9.769,15.744 2.8,25.975 -15.484,22.738l-156.519,-27.713c-18.284,-3.237 -18.122,-7.319 0.366,-9.069l120.262,-11.397Z" style="fill:#1375bc;fill-rule:nonzero;"/><path d="M102.439,196.425c-5.075,-67.431 44.781,-127.115 112.421,-133.743c6.069,-0.594 12.069,-0.716 17.985,-0.447l12.394,-36.428c2.418,-7.113 5.562,-14.7 12.275,-14.7c2.159,0 4.196,0.875 5.737,2.459c2.688,2.772 3.631,7.284 3.378,16.106l-1.147,38.497c45.86,14.894 80.982,55.766 85.975,106.738c2.203,22.512 -1.812,44.193 -10.534,63.453l6.894,3.284c1.412,-2.35 3.209,-5.428 4.972,-9.294c1.134,-2.225 2.046,-4.762 3.184,-7.381c0.884,-2.709 2.081,-5.506 2.856,-8.537c0.425,-1.497 0.866,-3.028 1.3,-4.578c0.35,-1.575 0.703,-3.166 1.053,-4.772c0.794,-3.2 1.15,-6.538 1.647,-9.853c0.516,-3.322 0.544,-6.685 0.835,-9.985c0.128,-3.303 -0.022,-6.569 -0.019,-9.731c-0.106,-3.153 -0.51,-6.2 -0.731,-9.094c-0.147,-2.912 -0.85,-5.587 -1.219,-8.103c-0.478,-2.491 -0.731,-4.828 -1.344,-6.806c-0.522,-2.003 -0.984,-3.747 -1.353,-5.185c-0.753,-2.878 -1.191,-4.525 -1.191,-4.525c0,0 0.538,1.616 1.472,4.441c0.472,1.419 1.038,3.138 1.694,5.103c0.741,1.953 1.137,4.275 1.769,6.753c0.54,2.5 1.425,5.16 1.756,8.085c0.419,2.915 1.006,5.978 1.331,9.172c0.2,3.203 0.556,6.525 0.638,9.909c-0.082,3.375 0.109,6.844 -0.2,10.275c-0.294,3.431 -0.447,6.897 -1.057,10.262c-0.259,1.669 -0.515,3.338 -0.775,4.994c-0.356,1.635 -0.703,3.244 -1.05,4.847c-0.606,3.197 -1.653,6.169 -2.409,9.066c-1.006,2.818 -1.806,5.543 -2.85,7.943c-1.506,3.95 -3.106,7.222 -4.441,9.797l6.619,3.15c1.575,-3.187 3.663,-7.578 5.678,-13.037c1.182,-2.903 2.163,-6.144 3.294,-9.547c0.997,-3.431 2.059,-7.072 2.931,-10.894c0.81,-3.831 1.75,-7.784 2.266,-11.862c0.297,-2.041 0.662,-4.088 0.9,-6.16l0.534,-6.259c0.491,-4.181 0.347,-8.378 0.46,-12.522c0.162,-4.137 -0.382,-8.194 -0.528,-12.137c-0.138,-3.954 -0.96,-7.7 -1.379,-11.297c-0.384,-3.622 -1.25,-6.935 -1.943,-10.038c-0.763,-3.069 -1.21,-5.956 -2.047,-8.403c-0.788,-2.456 -1.466,-4.6 -2.031,-6.359c-1.129,-3.541 -1.772,-5.56 -1.772,-5.56c0,0 0.743,1.982 2.053,5.463c0.647,1.734 1.447,3.847 2.353,6.275c0.969,2.397 1.562,5.272 2.487,8.325c0.854,3.081 1.9,6.387 2.469,10.006c0.603,3.603 1.635,7.363 1.981,11.353c0.357,3.978 1.104,8.078 1.163,12.285c0.097,4.212 0.462,8.493 0.178,12.771l-0.222,6.429c-0.134,2.131 -0.403,4.243 -0.6,6.337c-0.312,4.234 -1.075,8.331 -1.706,12.3c-0.694,3.981 -1.597,7.784 -2.444,11.391c-0.987,3.559 -1.834,6.972 -2.909,10.018c-1.806,5.785 -3.747,10.494 -5.25,13.947l7.703,3.675c0.053,-0.125 0.094,-0.212 0.15,-0.337c0.866,-2.028 1.878,-4.516 2.962,-7.394c1.047,-2.9 2.247,-6.178 3.325,-9.831c1.213,-3.619 2.185,-7.635 3.304,-11.86c0.984,-4.25 1.971,-8.768 2.787,-13.475c0.688,-4.718 1.597,-9.587 1.925,-14.596c0.228,-2.507 0.456,-5.025 0.684,-7.557c0.069,-2.547 0.147,-5.097 0.21,-7.653c0.306,-5.112 -0.11,-10.209 -0.263,-15.247l-0.165,-3.768c-0.141,-1.232 -0.291,-2.469 -0.435,-3.691c-0.281,-2.459 -0.559,-4.881 -0.837,-7.269c-0.144,-1.197 -0.291,-2.372 -0.422,-3.54c-0.228,-1.163 -0.456,-2.319 -0.669,-3.444c-0.456,-2.269 -0.89,-4.494 -1.319,-6.66c-0.709,-4.365 -1.95,-8.353 -3.006,-12.056c-1.119,-3.684 -1.872,-7.159 -3.031,-10.081c-1.113,-2.928 -2.088,-5.478 -2.884,-7.581c-1.604,-4.216 -2.525,-6.635 -2.525,-6.635c0,0 1.021,2.363 2.796,6.516c0.888,2.072 1.969,4.6 3.21,7.484c1.294,2.878 2.178,6.332 3.472,9.982c1.215,3.681 2.628,7.656 3.528,12.009c0.525,2.162 1.053,4.384 1.6,6.662c0.275,1.129 0.55,2.282 0.828,3.444c0.197,1.178 0.384,2.366 0.578,3.563c0.375,2.403 0.766,4.847 1.159,7.318c0.197,1.232 0.394,2.472 0.588,3.722l0.325,3.807c0.384,5.093 1.012,10.265 0.928,15.465c0.028,2.6 0.066,5.203 0.103,7.794c-0.119,2.591 -0.247,5.175 -0.369,7.728c-0.137,5.134 -0.84,10.141 -1.356,14.984c-0.631,4.857 -1.44,9.51 -2.272,13.916c-0.959,4.388 -1.793,8.553 -2.884,12.331c-0.941,3.803 -2.053,7.225 -3.006,10.282c-0.994,3.04 -1.935,5.668 -2.757,7.825c-0.1,0.262 -0.178,0.446 -0.278,0.693l5.96,2.844c0.284,-0.709 0.556,-1.391 0.881,-2.241c0.966,-2.403 1.966,-5.415 3.162,-8.837c1.035,-3.488 2.382,-7.375 3.438,-11.734c0.559,-2.172 1.206,-4.419 1.75,-6.782c0.497,-2.362 1.025,-4.809 1.553,-7.328c1.119,-5.028 1.763,-10.425 2.675,-15.972c0.275,-2.797 0.547,-5.637 0.838,-8.528c0.143,-1.428 0.284,-2.884 0.425,-4.334c0.059,-1.46 0.115,-2.941 0.168,-4.41c0.107,-2.956 0.213,-5.934 0.313,-8.925c0.094,-2.981 -0.166,-5.984 -0.228,-8.987c-0.157,-2.994 -0.125,-6.013 -0.425,-8.988c-0.341,-2.975 -0.685,-5.937 -1.019,-8.878c-0.456,-5.925 -1.869,-11.587 -2.928,-17.137c-0.891,-5.597 -2.756,-10.75 -4.153,-15.741c-0.769,-2.472 -1.378,-4.937 -2.222,-7.219c-0.906,-2.262 -1.791,-4.453 -2.635,-6.556c-1.762,-4.165 -3.093,-8.125 -4.768,-11.406c-1.707,-3.263 -3.203,-6.109 -4.425,-8.466c-2.457,-4.693 -3.853,-7.375 -3.853,-7.375c0,0 1.487,2.632 4.106,7.241c1.315,2.303 2.912,5.106 4.737,8.319c1.807,3.225 3.275,7.147 5.2,11.275c0.922,2.09 1.891,4.259 2.885,6.503c0.931,2.272 1.634,4.719 2.497,7.19c1.581,4.975 3.653,10.122 4.759,15.732c1.262,5.568 2.9,11.268 3.575,17.237c0.447,2.975 0.9,5.969 1.35,8.975c0.416,3.013 0.497,6.075 0.759,9.113c0.175,3.043 0.547,6.09 0.566,9.134c0,3.047 0,6.075 0.006,9.078c-0.006,1.516 -0.006,3.003 -0.015,4.5c-0.091,1.488 -0.185,2.978 -0.275,4.444c-0.191,2.947 -0.369,5.85 -0.557,8.719c-0.715,5.687 -1.184,11.228 -2.143,16.412c-0.457,2.591 -0.894,5.119 -1.322,7.56c-0.472,2.428 -1.05,4.759 -1.535,7.003c-0.934,4.509 -2.172,8.556 -3.122,12.184c-1.103,3.575 -2.025,6.706 -2.943,9.25c-0.369,1.075 -0.697,1.991 -1.007,2.866l4.972,2.375c13.441,-29.147 19.678,-62.035 16.332,-96.21c-10.054,-102.662 -101.76,-178.003 -204.422,-167.947c-101.653,9.954 -176.466,99.96 -168.178,201.379l61.8,-5.854Z" style="fill:#bbbdc0;fill-rule:nonzero;"/><path d="M734.111,64.274l-47.14,0l-69.378,194.4l43.034,0l13.75,-40.11l10.55,-33.084l24.884,-77.585l0.291,0l24.3,77.585l-38.259,0l-11.216,33.084l61.184,0l12.3,40.11l44.2,0l-68.5,-194.4Zm235.944,194.4l0,-133.21l-36.309,133.21l-40.403,0l-36.007,-132.625l0,132.625l-37.768,0l0,-194.4l59.722,0l35.14,142.581l35.131,-142.581l58.547,0l0,194.4l-38.053,0Zm-398.984,-194.4l41.275,0l0,129.696c0,23.616 -6.91,41.429 -20.744,53.429c-13.831,12.006 -33.506,18.009 -59.022,18.009c-23.578,0 -42.228,-5.663 -55.962,-16.978c-13.735,-11.325 -20.607,-28.694 -20.607,-52.119l0,-132.037l41.285,0l0,128.231c0,12.106 3.019,21.669 9.069,28.69c6.05,7.032 14.646,10.544 25.768,10.544c25.953,0 38.938,-12.594 38.938,-37.769l0,-129.696Z" style="fill:#1375bc;fill-rule:nonzero;"/></g></svg>